
<svg width="22" height="22" viewBox="0 0 512 512" fill="white" xmlns="http://www.w3.org/2000/svg">
<path d="M256.064 38.4C141.12 38.4 48 131.424 48 246.784c0 43.52 11.84 85.248 34.208 122.016l-36 104.48 107.424-35.136c35.712 19.488 76.544 29.728 117.6 29.728h.032c114.912 0 208.032-93.024 208.032-208.384 0-115.36-93.12-208.384-208.032-208.384zm111.744 319.744c-4.288 12-24.856 23.072-34.88 24.576-9.024 1.344-19.616 1.888-31.616-2-7.28-2.24-16.672-5.408-28.88-10.624-50.752-21.184-83.872-71.936-86.304-76.384-2.4-3.36-20.592-27.392-19.776-52.288.8-24.896 13.6-37.184 18.496-42.336 4.8-5.152 10.672-6.464 14.4-6.464 3.712 0 7.2.032 10.384.192 3.36.16 7.84-.64 12.124 9.28 4.288 9.92 14.624 33.664 15.936 36.16 1.312 2.496 2.176 5.504.432 8.896-1.696 3.392-2.528 5.504-4.928 8.672-2.4 3.136-5.056 7.008-7.136 9.472-2.368 2.528-4.832 5.216-2.064 10.272 2.752 5.056 12.288 20.224 26.336 32.704 14.016 12.464 25.952 16.56 31.04 18.464 5.056 1.888 8.096 1.568 10.976-.96 2.944-2.56 12.672-14.688 16.096-19.744 3.36-5.056 6.72-4.16 11.328-2.496 4.64 1.696 29.12 13.776 34.08 16.352 4.928 2.592 8.192 3.84 9.408 6.016 1.216 2.208 1.216 12.608-3.072 24.64z"/>
</svg>
